{
	"asset": {
		"generator": "Khronos glTF Blender I/O v4.0.44",
		"version": "2.0"
	},
	"extensionsUsed": ["KHR_materials_unlit"],
	"scene": 0,
	"scenes": [
		{
			"name": "Scene",
			"nodes": [0, 1, 2, 3, 4, 5, 6, 7]
		}
	],
	"nodes": [
		{
			"mesh": 0,
			"name": "Magic stone",
			"translation": [0, 7, 0]
		},
		{
			"mesh": 1,
			"name": "Trees"
		},
		{
			"mesh": 2,
			"name": "Leaves"
		},
		{
			"mesh": 3,
			"name": "Bushes"
		},
		{
			"mesh": 4,
			"name": "Stones"
		},
		{
			"mesh": 5,
			"name": "Grass ground"
		},
		{
			"mesh": 6,
			"name": "Dirt ground"
		},
		{
			"mesh": 7,
			"name": "Grass"
		}
	],
	"materials": [
		{
			"doubleSided": false,
			"extensions": {
				"KHR_materials_unlit": {}
			},
			"name": "Magic stone",
			"pbrMetallicRoughness": {
				"baseColorTexture": {
					"index": 0
				},
				"metallicFactor": 0,
				"roughnessFactor": 0.9
			}
		},
		{
			"doubleSided": false,
			"extensions": {
				"KHR_materials_unlit": {}
			},
			"name": "Tree",
			"pbrMetallicRoughness": {
				"baseColorTexture": {
					"index": 1
				},
				"metallicFactor": 0,
				"roughnessFactor": 0.9
			}
		},
		{
			"doubleSided": false,
			"extensions": {
				"KHR_materials_unlit": {}
			},
			"name": "Leaves",
			"pbrMetallicRoughness": {
				"baseColorTexture": {
					"index": 2
				},
				"metallicFactor": 0,
				"roughnessFactor": 0.9
			}
		},
		{
			"doubleSided": false,
			"extensions": {
				"KHR_materials_unlit": {}
			},
			"name": "Grass",
			"pbrMetallicRoughness": {
				"baseColorTexture": {
					"index": 3
				},
				"metallicFactor": 0,
				"roughnessFactor": 0.9
			}
		},
		{
			"doubleSided": false,
			"extensions": {
				"KHR_materials_unlit": {}
			},
			"name": "Stone",
			"pbrMetallicRoughness": {
				"baseColorTexture": {
					"index": 4
				},
				"metallicFactor": 0,
				"roughnessFactor": 0.9
			}
		},
		{
			"doubleSided": false,
			"extensions": {
				"KHR_materials_unlit": {}
			},
			"name": "Grass ground",
			"pbrMetallicRoughness": {
				"baseColorTexture": {
					"index": 5
				},
				"metallicFactor": 0,
				"roughnessFactor": 0.9
			}
		},
		{
			"doubleSided": false,
			"extensions": {
				"KHR_materials_unlit": {}
			},
			"name": "Dirt",
			"pbrMetallicRoughness": {
				"baseColorTexture": {
					"index": 6
				},
				"metallicFactor": 0,
				"roughnessFactor": 0.9
			}
		},
		{
			"doubleSided": true,
			"extensions": {
				"KHR_materials_unlit": {}
			},
			"name": "Grass blade",
			"pbrMetallicRoughness": {
				"baseColorTexture": {
					"index": 7
				},
				"metallicFactor": 0,
				"roughnessFactor": 0.9
			}
		}
	],
	"meshes": [
		{
			"name": "Magic stone mesh",
			"primitives": [
				{
					"attributes": {
						"POSITION": 0,
						"NORMAL": 1,
						"TEXCOORD_0": 2
					},
					"indices": 3,
					"material": 0
				}
			]
		},
		{
			"name": "Trees mesh",
			"primitives": [
				{
					"attributes": {
						"POSITION": 4,
						"NORMAL": 5,
						"TEXCOORD_0": 6
					},
					"indices": 7,
					"material": 1
				}
			]
		},
		{
			"name": "Leaves mesh",
			"primitives": [
				{
					"attributes": {
						"POSITION": 8,
						"NORMAL": 9,
						"TEXCOORD_0": 10
					},
					"indices": 11,
					"material": 2
				}
			]
		},
		{
			"name": "Bushes mesh",
			"primitives": [
				{
					"attributes": {
						"POSITION": 12,
						"NORMAL": 13,
						"TEXCOORD_0": 14
					},
					"indices": 15,
					"material": 3
				}
			]
		},
		{
			"name": "Stones mesh",
			"primitives": [
				{
					"attributes": {
						"POSITION": 16,
						"NORMAL": 17,
						"TEXCOORD_0": 18
					},
					"indices": 19,
					"material": 4
				}
			]
		},
		{
			"name": "Grass ground mesh",
			"primitives": [
				{
					"attributes": {
						"POSITION": 20,
						"NORMAL": 21,
						"TEXCOORD_0": 22
					},
					"indices": 23,
					"material": 5
				}
			]
		},
		{
			"name": "Dirt ground mesh",
			"primitives": [
				{
					"attributes": {
						"POSITION": 24,
						"NORMAL": 25,
						"TEXCOORD_0": 26
					},
					"indices": 27,
					"material": 6
				}
			]
		},
		{
			"name": "Grass mesh",
			"primitives": [
				{
					"attributes": {
						"POSITION": 28,
						"NORMAL": 29,
						"TEXCOORD_0": 30
					},
					"indices": 31,
					"material": 7
				}
			]
		}
	],
	"textures": [
		{
			"sampler": 0,
			"source": 0
		},
		{
			"sampler": 0,
			"source": 1
		},
		{
			"sampler": 0,
			"source": 2
		},
		{
			"sampler": 0,
			"source": 3
		},
		{
			"sampler": 0,
			"source": 4
		},
		{
			"sampler": 0,
			"source": 5
		},
		{
			"sampler": 0,
			"source": 6
		},
		{
			"sampler": 0,
			"source": 7
		}
	],
	"images": [
		{
			"mimeType": "image/png",
			"name": "Magic stone baked",
			"uri": "Magic%20stone%20baked.png"
		},
		{
			"mimeType": "image/png",
			"name": "Trees baked",
			"uri": "Trees%20baked.png"
		},
		{
			"mimeType": "image/png",
			"name": "Leaves baked",
			"uri": "Leaves%20baked.png"
		},
		{
			"mimeType": "image/png",
			"name": "Bushes baked",
			"uri": "Bushes%20baked.png"
		},
		{
			"mimeType": "image/png",
			"name": "Stones baked",
			"uri": "Stones%20baked.png"
		},
		{
			"mimeType": "image/png",
			"name": "Grass ground baked",
			"uri": "Grass%20ground%20baked.png"
		},
		{
			"mimeType": "image/png",
			"name": "Dirt ground baked",
			"uri": "Dirt%20ground%20baked.png"
		},
		{
			"mimeType": "image/png",
			"name": "Grass baked",
			"uri": "Grass%20baked.png"
		}
	],
	"accessors": [
		{
			"bufferView": 0,
			"componentType": 5126,
			"count": 135,
			"max": [0.7716665267944336, 1.2760757207870483, 0.7545664310455322],
			"min": [-0.6370359063148499, -1.7881393432617188e-7, -0.699999988079071],
			"type": "VEC3"
		},
		{
			"bufferView": 1,
			"componentType": 5126,
			"count": 135,
			"type": "VEC3"
		},
		{
			"bufferView": 2,
			"componentType": 5126,
			"count": 135,
			"type": "VEC2"
		},
		{
			"bufferView": 3,
			"componentType": 5123,
			"count": 201,
			"type": "SCALAR"
		},
		{
			"bufferView": 4,
			"componentType": 5126,
			"count": 44638,
			"max": [27.508163452148438, 11.086470603942871, 26.206222534179688],
			"min": [-26.354032516479492, -0.2427746057510376, -30.864112854003906],
			"type": "VEC3"
		},
		{
			"bufferView": 5,
			"componentType": 5126,
			"count": 44638,
			"type": "VEC3"
		},
		{
			"bufferView": 6,
			"componentType": 5126,
			"count": 44638,
			"type": "VEC2"
		},
		{
			"bufferView": 7,
			"componentType": 5123,
			"count": 45528,
			"type": "SCALAR"
		},
		{
			"bufferView": 8,
			"componentType": 5126,
			"count": 40340,
			"max": [31.384647369384766, 14.064133644104004, 29.87386703491211],
			"min": [-29.539714813232422, 3.6007189750671387, -32.739967346191406],
			"type": "VEC3"
		},
		{
			"bufferView": 9,
			"componentType": 5126,
			"count": 40340,
			"type": "VEC3"
		},
		{
			"bufferView": 10,
			"componentType": 5126,
			"count": 40340,
			"type": "VEC2"
		},
		{
			"bufferView": 11,
			"componentType": 5123,
			"count": 48984,
			"type": "SCALAR"
		},
		{
			"bufferView": 12,
			"componentType": 5126,
			"count": 5324,
			"max": [35.089454650878906, 3.3970868587493896, 33.57360076904297],
			"min": [-34.06752395629883, -3.6190860271453857, -34.103214263916016],
			"type": "VEC3"
		},
		{
			"bufferView": 13,
			"componentType": 5126,
			"count": 5324,
			"type": "VEC3"
		},
		{
			"bufferView": 14,
			"componentType": 5126,
			"count": 5324,
			"type": "VEC2"
		},
		{
			"bufferView": 15,
			"componentType": 5123,
			"count": 6126,
			"type": "SCALAR"
		},
		{
			"bufferView": 16,
			"componentType": 5126,
			"count": 13108,
			"max": [32.943077087402344, 4.499569892883301, 34.84663772583008],
			"min": [-35.22441101074219, -4.6447577476501465, -35.54178237915039],
			"type": "VEC3"
		},
		{
			"bufferView": 17,
			"componentType": 5126,
			"count": 13108,
			"type": "VEC3"
		},
		{
			"bufferView": 18,
			"componentType": 5126,
			"count": 13108,
			"type": "VEC2"
		},
		{
			"bufferView": 19,
			"componentType": 5123,
			"count": 13410,
			"type": "SCALAR"
		},
		{
			"bufferView": 20,
			"componentType": 5126,
			"count": 190,
			"max": [32, 7, 32],
			"min": [-32, 0, -32],
			"type": "VEC3"
		},
		{
			"bufferView": 21,
			"componentType": 5126,
			"count": 190,
			"type": "VEC3"
		},
		{
			"bufferView": 22,
			"componentType": 5126,
			"count": 190,
			"type": "VEC2"
		},
		{
			"bufferView": 23,
			"componentType": 5123,
			"count": 309,
			"type": "SCALAR"
		},
		{
			"bufferView": 24,
			"componentType": 5126,
			"count": 69,
			"max": [8.952262878417969, 6.400000095367432, 7.41758918762207],
			"min": [-4.511401176452637, 0, -7.70948600769043],
			"type": "VEC3"
		},
		{
			"bufferView": 25,
			"componentType": 5126,
			"count": 69,
			"type": "VEC3"
		},
		{
			"bufferView": 26,
			"componentType": 5126,
			"count": 69,
			"type": "VEC2"
		},
		{
			"bufferView": 27,
			"componentType": 5123,
			"count": 69,
			"type": "SCALAR"
		},
		{
			"bufferView": 28,
			"componentType": 5126,
			"count": 381840,
			"max": [31.02521514892578, 7.799997329711914, 31.84860610961914],
			"min": [-30.898305892944336, 0, -30.430566787719727],
			"type": "VEC3"
		},
		{
			"bufferView": 29,
			"componentType": 5126,
			"count": 381840,
			"type": "VEC3"
		},
		{
			"bufferView": 30,
			"componentType": 5126,
			"count": 381840,
			"type": "VEC2"
		},
		{
			"bufferView": 31,
			"componentType": 5125,
			"count": 572760,
			"type": "SCALAR"
		}
	],
	"bufferViews": [
		{
			"buffer": 0,
			"byteLength": 1620,
			"byteOffset": 0,
			"target": 34962
		},
		{
			"buffer": 0,
			"byteLength": 1620,
			"byteOffset": 1620,
			"target": 34962
		},
		{
			"buffer": 0,
			"byteLength": 1080,
			"byteOffset": 3240,
			"target": 34962
		},
		{
			"buffer": 0,
			"byteLength": 402,
			"byteOffset": 4320,
			"target": 34963
		},
		{
			"buffer": 0,
			"byteLength": 535656,
			"byteOffset": 4724,
			"target": 34962
		},
		{
			"buffer": 0,
			"byteLength": 535656,
			"byteOffset": 540380,
			"target": 34962
		},
		{
			"buffer": 0,
			"byteLength": 357104,
			"byteOffset": 1076036,
			"target": 34962
		},
		{
			"buffer": 0,
			"byteLength": 91056,
			"byteOffset": 1433140,
			"target": 34963
		},
		{
			"buffer": 0,
			"byteLength": 484080,
			"byteOffset": 1524196,
			"target": 34962
		},
		{
			"buffer": 0,
			"byteLength": 484080,
			"byteOffset": 2008276,
			"target": 34962
		},
		{
			"buffer": 0,
			"byteLength": 322720,
			"byteOffset": 2492356,
			"target": 34962
		},
		{
			"buffer": 0,
			"byteLength": 97968,
			"byteOffset": 2815076,
			"target": 34963
		},
		{
			"buffer": 0,
			"byteLength": 63888,
			"byteOffset": 2913044,
			"target": 34962
		},
		{
			"buffer": 0,
			"byteLength": 63888,
			"byteOffset": 2976932,
			"target": 34962
		},
		{
			"buffer": 0,
			"byteLength": 42592,
			"byteOffset": 3040820,
			"target": 34962
		},
		{
			"buffer": 0,
			"byteLength": 12252,
			"byteOffset": 3083412,
			"target": 34963
		},
		{
			"buffer": 0,
			"byteLength": 157296,
			"byteOffset": 3095664,
			"target": 34962
		},
		{
			"buffer": 0,
			"byteLength": 157296,
			"byteOffset": 3252960,
			"target": 34962
		},
		{
			"buffer": 0,
			"byteLength": 104864,
			"byteOffset": 3410256,
			"target": 34962
		},
		{
			"buffer": 0,
			"byteLength": 26820,
			"byteOffset": 3515120,
			"target": 34963
		},
		{
			"buffer": 0,
			"byteLength": 2280,
			"byteOffset": 3541940,
			"target": 34962
		},
		{
			"buffer": 0,
			"byteLength": 2280,
			"byteOffset": 3544220,
			"target": 34962
		},
		{
			"buffer": 0,
			"byteLength": 1520,
			"byteOffset": 3546500,
			"target": 34962
		},
		{
			"buffer": 0,
			"byteLength": 618,
			"byteOffset": 3548020,
			"target": 34963
		},
		{
			"buffer": 0,
			"byteLength": 828,
			"byteOffset": 3548640,
			"target": 34962
		},
		{
			"buffer": 0,
			"byteLength": 828,
			"byteOffset": 3549468,
			"target": 34962
		},
		{
			"buffer": 0,
			"byteLength": 552,
			"byteOffset": 3550296,
			"target": 34962
		},
		{
			"buffer": 0,
			"byteLength": 138,
			"byteOffset": 3550848,
			"target": 34963
		},
		{
			"buffer": 0,
			"byteLength": 4582080,
			"byteOffset": 3550988,
			"target": 34962
		},
		{
			"buffer": 0,
			"byteLength": 4582080,
			"byteOffset": 8133068,
			"target": 34962
		},
		{
			"buffer": 0,
			"byteLength": 3054720,
			"byteOffset": 12715148,
			"target": 34962
		},
		{
			"buffer": 0,
			"byteLength": 2291040,
			"byteOffset": 15769868,
			"target": 34963
		}
	],
	"samplers": [
		{
			"magFilter": 9729,
			"minFilter": 9987
		}
	],
	"buffers": [
		{
			"byteLength": 18060908,
			"uri": "Terrain%20baked.bin"
		}
	]
}
